<svg width="48" height="48" viewBox="0 0 48 48" fill="none" xmlns="http://www.w3.org/2000/svg">
<path fill-rule="evenodd" clip-rule="evenodd" d="M5.49994 4.09375C4.72329 4.09375 4.09369 4.72335 4.09369 5.5C4.09369 6.27665 4.72329 6.90625 5.49994 6.90625H9.40197L10.1357 9.84107L13.7162 24.1632C11.6566 24.533 10.0937 26.334 10.0937 28.5C10.0937 30.9335 12.0664 32.9062 14.4999 32.9062H37.4999C38.2766 32.9062 38.9062 32.2766 38.9062 31.5C38.9062 30.7233 38.2766 30.0937 37.4999 30.0937H14.4999C13.6197 30.0937 12.9062 29.3802 12.9062 28.5C12.9062 27.6198 13.6197 26.9062 14.4999 26.9062H15.4999H37.4999C38.1452 26.9062 38.7077 26.4671 38.8642 25.8411L42.8642 9.84107C42.9692 9.42096 42.8748 8.9759 42.6083 8.63458C42.3419 8.29326 41.933 8.09375 41.4999 8.09375H12.5979L11.8642 5.15893C11.7077 4.53292 11.1452 4.09375 10.4999 4.09375H5.49994ZM15.4999 36.0937C13.6187 36.0937 12.0937 37.6188 12.0937 39.5C12.0937 41.3812 13.6187 42.9062 15.4999 42.9062C17.3812 42.9062 18.9062 41.3812 18.9062 39.5C18.9062 37.6188 17.3812 36.0937 15.4999 36.0937ZM35.4999 36.0937C33.6187 36.0937 32.0937 37.6188 32.0937 39.5C32.0937 41.3812 33.6187 42.9062 35.4999 42.9062C37.3812 42.9062 38.9062 41.3812 38.9062 39.5C38.9062 37.6188 37.3812 36.0937 35.4999 36.0937Z" fill="black"/>
</svg>
