<svg width="48" height="48" viewBox="0 0 48 48" fill="none" xmlns="http://www.w3.org/2000/svg">
<path d="M36.9999 20L38.0413 19.055C37.7748 18.7613 37.3966 18.5938 36.9999 18.5938V20ZM43.9999 27.7143H45.4062C45.4062 27.3649 45.2761 27.028 45.0413 26.7693L43.9999 27.7143ZM43.9999 36L44.0001 37.4062C44.7767 37.4061 45.4062 36.7766 45.4062 36H43.9999ZM39.8294 36.0006L38.5035 36.4689L38.5035 36.4689L39.8294 36.0006ZM34.1704 36.0006L35.4964 36.4689L35.4964 36.4689L34.1704 36.0006ZM29.9999 20V18.5938C29.2233 18.5938 28.5937 19.2233 28.5937 20H29.9999ZM1.99994 10.5938C1.22329 10.5938 0.593689 11.2233 0.593689 12C0.593689 12.7767 1.22329 13.4062 1.99994 13.4062V10.5938ZM29.9999 12H31.4062C31.4062 11.2233 30.7766 10.5938 29.9999 10.5938V12ZM8.00032 34.5938C7.22367 34.5935 6.5939 35.223 6.59369 35.9996C6.59348 36.7763 7.22291 37.406 7.99956 37.4062L8.00032 34.5938ZM8.99994 25.4062C9.77659 25.4062 10.4062 24.7767 10.4062 24C10.4062 23.2233 9.77659 22.5938 8.99994 22.5938V25.4062ZM5.99994 22.5938C5.22329 22.5938 4.59369 23.2233 4.59369 24C4.59369 24.7767 5.22329 25.4062 5.99994 25.4062V22.5938ZM8.99994 31.4062C9.77659 31.4062 10.4062 30.7767 10.4062 30C10.4062 29.2233 9.77659 28.5938 8.99994 28.5938V31.4062ZM7.99994 28.5938C7.22329 28.5938 6.59369 29.2233 6.59369 30C6.59369 30.7767 7.22329 31.4062 7.99994 31.4062V28.5938ZM8.99994 19.4062C9.77659 19.4062 10.4062 18.7767 10.4062 18C10.4062 17.2233 9.77659 16.5938 8.99994 16.5938V19.4062ZM3.99994 16.5938C3.22329 16.5938 2.59369 17.2233 2.59369 18C2.59369 18.7767 3.22329 19.4062 3.99994 19.4062V16.5938ZM35.9585 20.945L42.9585 28.6593L45.0413 26.7693L38.0413 19.055L35.9585 20.945ZM42.5937 27.7143V36H45.4062V27.7143H42.5937ZM43.9997 34.5938L39.8292 34.5943L39.8296 37.4068L44.0001 37.4062L43.9997 34.5938ZM41.1554 35.5322C40.5514 33.8223 38.921 32.5938 36.9999 32.5938V35.4062C37.6918 35.4062 38.2841 35.8479 38.5035 36.4689L41.1554 35.5322ZM36.9999 32.5938C35.0789 32.5938 33.4484 33.8223 32.8445 35.5322L35.4964 36.4689C35.7158 35.8479 36.3081 35.4062 36.9999 35.4062V32.5938ZM34.1706 34.5943L30.0001 34.5938L29.9997 37.4062L34.1702 37.4068L34.1706 34.5943ZM31.4062 36V20H28.5937V36H31.4062ZM29.9999 21.4062H36.9999V18.5938H29.9999V21.4062ZM1.99994 13.4062H29.9999V10.5938H1.99994V13.4062ZM28.5937 12V36H31.4062V12H28.5937ZM29.9999 34.5938L15.8294 34.5943L15.8295 37.4068L30 37.4062L29.9999 34.5938ZM17.1554 35.5322C16.5514 33.8223 14.921 32.5938 12.9999 32.5938V35.4062C13.6918 35.4062 14.2841 35.8479 14.5035 36.4689L17.1554 35.5322ZM12.9999 32.5938C11.0789 32.5938 9.44844 33.8223 8.84447 35.5322L11.4964 36.4689C11.7158 35.8479 12.3081 35.4062 12.9999 35.4062L12.9999 32.5938ZM10.1708 34.5943L8.00032 34.5938L7.99956 37.4062L10.1701 37.4068L10.1708 34.5943ZM36.9999 35.4062C37.8801 35.4062 38.5937 36.1198 38.5937 37H41.4062C41.4062 34.5665 39.4334 32.5938 36.9999 32.5938V35.4062ZM38.5937 37C38.5937 37.8802 37.8801 38.5938 36.9999 38.5938V41.4062C39.4334 41.4062 41.4062 39.4335 41.4062 37H38.5937ZM36.9999 38.5938C36.1197 38.5938 35.4062 37.8802 35.4062 37H32.5937C32.5937 39.4335 34.5664 41.4062 36.9999 41.4062V38.5938ZM35.4062 37C35.4062 36.1198 36.1197 35.4062 36.9999 35.4062V32.5938C34.5664 32.5938 32.5937 34.5665 32.5937 37H35.4062ZM12.9999 35.4062C13.8801 35.4062 14.5937 36.1198 14.5937 37H17.4062C17.4062 34.5665 15.4334 32.5938 12.9999 32.5938V35.4062ZM14.5937 37C14.5937 37.8802 13.8801 38.5938 12.9999 38.5938V41.4062C15.4334 41.4062 17.4062 39.4335 17.4062 37H14.5937ZM12.9999 38.5938C12.1197 38.5938 11.4062 37.8802 11.4062 37H8.59369C8.59369 39.4335 10.5664 41.4062 12.9999 41.4062V38.5938ZM11.4062 37C11.4062 36.1198 12.1197 35.4062 12.9999 35.4062V32.5938C10.5664 32.5938 8.59369 34.5665 8.59369 37H11.4062ZM8.99994 22.5938H5.99994V25.4062H8.99994V22.5938ZM8.99994 28.5938H7.99994V31.4062H8.99994V28.5938ZM8.99994 16.5938H3.99994V19.4062H8.99994V16.5938ZM32.8445 35.5322C32.6816 35.9932 32.5937 36.4878 32.5937 37H35.4062C35.4062 36.8113 35.4384 36.6332 35.4964 36.4689L32.8445 35.5322ZM41.4062 37C41.4062 36.4878 41.3182 35.9932 41.1554 35.5322L38.5035 36.4689C38.5615 36.6332 38.5937 36.8113 38.5937 37H41.4062ZM8.84447 35.5322C8.68166 35.9932 8.59369 36.4878 8.59369 37H11.4062C11.4062 36.8113 11.4384 36.6332 11.4964 36.4689L8.84447 35.5322ZM17.4062 37C17.4062 36.4878 17.3182 35.9932 17.1554 35.5322L14.5035 36.4689C14.5615 36.6332 14.5937 36.8113 14.5937 37H17.4062Z" fill="black"/>
</svg>
