<svg width="48" height="48" viewBox="0 0 48 48" fill="none" xmlns="http://www.w3.org/2000/svg">
<path d="M30.9942 29.0056C30.4451 28.4565 29.5547 28.4565 29.0055 29.0056C28.4563 29.5548 28.4563 30.4452 29.0055 30.9944L30.9942 29.0056ZM41.0055 42.9944C41.5547 43.5435 42.4451 43.5435 42.9942 42.9944C43.5434 42.4452 43.5434 41.5548 42.9942 41.0056L41.0055 42.9944ZM19.9999 32.5937C13.0445 32.5937 7.40611 26.9553 7.40611 20H4.59361C4.59361 28.5086 11.4912 35.4062 19.9999 35.4062V32.5937ZM32.5936 20C32.5936 26.9553 26.9552 32.5937 19.9999 32.5937V35.4062C28.5085 35.4062 35.4061 28.5086 35.4061 20H32.5936ZM19.9999 7.40625C26.9552 7.40625 32.5936 13.0447 32.5936 20H35.4061C35.4061 11.4914 28.5085 4.59375 19.9999 4.59375V7.40625ZM19.9999 4.59375C11.4912 4.59375 4.59361 11.4914 4.59361 20H7.40611C7.40611 13.0447 13.0445 7.40625 19.9999 7.40625V4.59375ZM29.0055 30.9944L41.0055 42.9944L42.9942 41.0056L30.9942 29.0056L29.0055 30.9944Z" fill="black"/>
</svg>
